<svg xmlns="http://www.w3.org/2000/svg" viewBox="0 0 64 64" width="64" height="64"><clipPath id="c"><rect x="0" y="0" width="64" height="64" rx="14"></rect></clipPath><g clip-path="url(#c)">
<rect x="0" y="0" width="64" height="64" fill="#12626F"></rect>
<g transform="rotate(-16 32 45)"><rect x="6" y="39" width="52" height="11" rx="5.5" fill="#FF7A4D"></rect></g>
<ellipse cx="17" cy="36" rx="6.5" ry="3.6" transform="rotate(-28 17 36)" fill="#2FA184"></ellipse>
<ellipse cx="46" cy="35" rx="7" ry="3.8" transform="rotate(26 46 35)" fill="#2FA184"></ellipse>
<circle cx="28" cy="25" r="14" fill="#2FA184"></circle><circle cx="46" cy="21" r="8" fill="#2FA184"></circle>
<rect x="38" y="16.5" width="18" height="8" rx="4" fill="#101F26"></rect>
<path d="M0 50 C12 45 20 57 32 54 C44 51 54 58 64 54 L64 64 L0 64 Z" fill="#7FD8DE"></path></g></svg>